<svg width="60" height="60" viewBox="0 0 60 60" fill="none" xmlns="http://www.w3.org/2000/svg">
<path d="M6.99446 56.3736C7.01981 56.57 7.11712 56.7499 7.26754 56.8786C7.41796 57.0073 7.61079 57.0756 7.80868 57.0703H18.3556C18.482 57.0759 18.608 57.051 18.7227 56.9976C18.8375 56.9441 18.9376 56.8638 19.0147 56.7634C19.0918 56.6629 19.1435 56.5454 19.1654 56.4207C19.1873 56.2961 19.1789 56.168 19.1407 56.0473L17.7914 51.6276L21.995 48.9726C22.5351 48.6762 23.1674 48.5955 23.7646 48.7469C23.7815 48.7513 23.7986 48.7557 23.8158 48.7587L32.5942 50.3759C35.0147 50.809 37.5102 50.4567 39.7163 49.3705C39.7511 49.3534 39.7846 49.3339 39.8166 49.3119L54.999 38.8875C55.1714 38.7692 55.292 38.5895 55.3363 38.3852C55.3807 38.1809 55.3453 37.9674 55.2375 37.7883C54.6632 36.8317 53.7421 36.1335 52.6659 35.8391C51.5896 35.5448 50.4414 35.6769 49.4602 36.2081L49.3188 36.2844C48.2138 35.0367 46.3774 34.5707 44.9686 35.2849L44.9503 35.2945L44.4375 35.5707C43.6834 34.9623 42.7629 34.5961 41.7969 34.5201C40.8309 34.4442 39.8645 34.6622 39.0246 35.1453L35.7741 36.9141H31.4381C30.5151 36.9125 29.6042 36.7035 28.7729 36.3023L28.1709 36.0107C26.4291 35.1631 24.4866 34.8141 22.5586 35.0023C20.6307 35.1905 18.7924 35.9086 17.2473 37.0771C17.2293 37.0907 17.2122 37.1047 17.195 37.1196L15.7412 38.4141C15.2516 38.8495 14.6793 39.1818 14.0584 39.3913L13.2808 36.8163C13.2307 36.6455 13.1278 36.4948 12.9869 36.3861C12.8459 36.2773 12.6741 36.216 12.4962 36.2109H5.46493C5.34724 36.2155 5.23181 36.2446 5.12604 36.2964C5.02028 36.3482 4.92651 36.4216 4.85075 36.5118C4.77374 36.5987 4.71608 36.7009 4.6816 36.8118C4.64711 36.9227 4.63658 37.0396 4.65071 37.1549L6.99446 56.3736ZM45.7188 36.7447C46.3843 36.4127 47.2071 36.6361 47.7982 37.1054L42.2524 40.0973L42.0807 40.1879C41.9206 39.7814 41.7093 39.3969 41.4522 39.0437L45.7188 36.7447ZM39.818 36.5807C39.8245 36.5771 39.8311 36.5735 39.8374 36.5699C40.2835 36.3118 40.7859 36.1667 41.3008 36.1472C41.8158 36.1276 42.3277 36.2342 42.7921 36.4577L40.2257 37.8405C39.7869 37.5335 39.3029 37.2968 38.7912 37.1391L39.818 36.5807ZM16.8321 39.6393L18.2602 38.3679C19.5639 37.3895 21.1122 36.7895 22.7347 36.6342C24.3573 36.4788 25.9913 36.7739 27.457 37.4871L28.0592 37.7793C29.1131 38.2877 30.2679 38.5527 31.4381 38.5547H37.2774C38.0607 38.5555 38.8215 38.8171 39.4398 39.2983C40.058 39.7794 40.4984 40.4527 40.6915 41.2119L36.675 41.0297C35.1263 40.9597 33.5744 41.0312 32.0387 41.2435C31.8259 41.2764 31.6345 41.3916 31.5059 41.5644C31.3773 41.7371 31.3218 41.9535 31.3513 42.1668C31.3809 42.3801 31.4931 42.5732 31.6638 42.7045C31.8345 42.8358 32.05 42.8947 32.2637 42.8685C33.7003 42.67 35.152 42.6029 36.6008 42.6681L41.5813 42.8934C41.593 42.8934 41.606 42.8943 41.6183 42.8943C41.8359 42.8943 42.0445 42.8078 42.1984 42.654C42.3522 42.5001 42.4386 42.2915 42.4386 42.0739C42.4386 42.0008 42.4362 41.9282 42.4333 41.8557L43.0238 41.5444L50.239 37.6519C50.7318 37.3849 51.2956 37.2784 51.8518 37.347C52.4081 37.4156 52.9291 37.656 53.3422 38.0347L38.9368 47.9253C37.0598 48.8363 34.9424 49.1292 32.8886 48.7621L24.137 47.1505C23.1345 46.9044 22.0758 47.0485 21.1756 47.5536C21.1628 47.5609 21.15 47.5684 21.1377 47.5762L17.294 50.0061L14.5365 40.9617C15.3841 40.6826 16.1655 40.2326 16.8321 39.6394V39.6393ZM11.8887 37.8516L17.2479 55.4297H8.53501L6.3913 37.8516H11.8887Z" fill="#181818"/>
<path d="M12.5294 55.1627C12.9698 55.1627 13.4003 55.0321 13.7665 54.7875C14.1326 54.5428 14.418 54.1951 14.5865 53.7882C14.755 53.3814 14.7991 52.9337 14.7132 52.5018C14.6273 52.0699 14.4153 51.6731 14.1039 51.3617C13.7925 51.0504 13.3957 50.8383 12.9638 50.7524C12.5319 50.6665 12.0842 50.7106 11.6774 50.8791C11.2705 51.0476 10.9228 51.333 10.6781 51.6991C10.4335 52.0653 10.3029 52.4958 10.3029 52.9362C10.3036 53.5265 10.5384 54.0924 10.9558 54.5098C11.3732 54.9272 11.9391 55.162 12.5294 55.1627ZM12.5294 52.3502C12.6453 52.3502 12.7586 52.3846 12.855 52.449C12.9513 52.5134 13.0264 52.6049 13.0708 52.7119C13.1151 52.819 13.1267 52.9368 13.1041 53.0505C13.0815 53.1641 13.0257 53.2685 12.9438 53.3505C12.8618 53.4324 12.7574 53.4882 12.6438 53.5108C12.5301 53.5335 12.4123 53.5218 12.3052 53.4775C12.1982 53.4331 12.1066 53.358 12.0423 53.2617C11.9779 53.1653 11.9435 53.052 11.9435 52.9362C11.9437 52.7808 12.0055 52.6319 12.1153 52.522C12.2252 52.4122 12.3741 52.3504 12.5294 52.3502Z" fill="#181818"/>
<path d="M17.0306 19.3176L19.2565 19.5322C19.5092 20.4487 19.8795 21.3287 20.358 22.1503L18.9444 23.8572C18.814 24.0146 18.747 24.215 18.7565 24.4191C18.7661 24.6233 18.8515 24.8165 18.9961 24.961L21.6654 27.6303C21.8098 27.7748 22.003 27.8601 22.207 27.8697C22.4111 27.8793 22.6114 27.8124 22.7687 27.6821L24.4796 26.2647C25.3005 26.742 26.1786 27.1131 27.0929 27.3693L27.3075 29.603C27.3269 29.8069 27.4213 29.9963 27.5723 30.1346C27.7233 30.2729 27.9202 30.3502 28.125 30.3516H31.9095C32.1141 30.35 32.3109 30.2725 32.4617 30.1341C32.6126 29.9957 32.7067 29.8063 32.726 29.6026L32.9406 27.3731C33.8572 27.1198 34.7371 26.7489 35.5586 26.2699L37.2656 27.6826C37.423 27.8128 37.6233 27.8796 37.8273 27.8699C38.0314 27.8602 38.2245 27.7748 38.3688 27.6303L41.0378 24.961C41.1823 24.8166 41.2677 24.6234 41.2773 24.4193C41.2869 24.2153 41.22 24.0149 41.0897 23.8576L39.6717 22.1459C40.1491 21.3248 40.5204 20.4464 40.7766 19.5318L42.9698 19.3177C43.1726 19.2979 43.3608 19.2034 43.4977 19.0524C43.6346 18.9015 43.7105 18.705 43.7105 18.5013V14.7167C43.7105 14.5128 43.6345 14.3162 43.4974 14.1652C43.3603 14.0142 43.1719 13.9197 42.9689 13.9001L40.743 13.6857C40.4903 12.7691 40.1201 11.8891 39.6415 11.0676L41.0551 9.36054C41.1848 9.20391 41.2517 9.00471 41.2428 8.80156C41.2339 8.59841 41.1499 8.4058 41.0071 8.26108L38.3721 5.59167C38.228 5.4458 38.0344 5.3592 37.8296 5.34894C37.6248 5.33868 37.4236 5.4055 37.2656 5.53624L35.5547 6.95421C34.7338 6.47695 33.8557 6.10578 32.9414 5.8496L32.7268 3.64764C32.7063 3.44688 32.6106 3.26131 32.4589 3.12817C32.3072 2.99503 32.1108 2.92415 31.9091 2.92975H28.125C27.9236 2.92443 27.7275 2.99537 27.5761 3.12836C27.4247 3.26136 27.3291 3.44661 27.3084 3.64706L27.0938 5.86061C26.1775 6.11122 25.2975 6.4794 24.4758 6.95597L22.7686 5.53928C22.6114 5.40879 22.4113 5.34162 22.2072 5.35092C22.0031 5.36022 21.8099 5.44531 21.6653 5.58956L18.9961 8.25804C18.8518 8.40245 18.7665 8.59549 18.7569 8.79944C18.7473 9.00339 18.8141 9.20358 18.9443 9.36089L20.3623 11.0718C19.885 11.8927 19.5138 12.7708 19.2577 13.6851L17.0311 13.8997C16.8279 13.9192 16.6393 14.0137 16.5021 14.1647C16.3649 14.3158 16.2889 14.5126 16.2891 14.7167V18.501C16.2891 18.705 16.365 18.9016 16.5021 19.0526C16.6392 19.2035 16.8276 19.298 17.0306 19.3176ZM17.9297 15.4618L19.9922 15.2626C20.1653 15.2459 20.3286 15.1745 20.4586 15.0589C20.5885 14.9433 20.6784 14.7894 20.7151 14.6194C20.967 13.489 21.4213 12.4134 22.0561 11.4446C22.1506 11.2981 22.196 11.1253 22.1857 10.9513C22.1753 10.7773 22.1098 10.611 21.9987 10.4767L20.6842 8.88933L22.2974 7.27612L23.8846 8.59061C24.0205 8.70319 24.1891 8.76894 24.3653 8.7781C24.5415 8.78727 24.716 8.73935 24.8629 8.64147C25.8259 8.00429 26.8991 7.55198 28.0277 7.30764C28.196 7.27619 28.3495 7.19114 28.4654 7.06521C28.5814 6.93929 28.6534 6.77924 28.6709 6.60897L28.8701 4.56991H31.1646L31.3638 6.60897C31.3809 6.78067 31.4526 6.94237 31.5683 7.07032C31.6841 7.19828 31.8378 7.28573 32.007 7.31983C33.1374 7.56925 34.2134 8.02135 35.1827 8.65425C35.3296 8.74836 35.5026 8.79322 35.6766 8.78233C35.8507 8.77143 36.0168 8.70535 36.1507 8.59366L37.7343 7.28116L39.3204 8.88663L38.0013 10.4766C37.8888 10.6125 37.8232 10.7811 37.814 10.9573C37.8049 11.1335 37.8528 11.3079 37.9507 11.4547C38.5878 12.4177 39.0401 13.4909 39.2844 14.6194C39.3212 14.7894 39.411 14.9433 39.541 15.0589C39.6709 15.1745 39.8342 15.2459 40.0073 15.2626L42.0698 15.4618V17.7569L40.0398 17.9551C39.8669 17.9719 39.7037 18.0433 39.5739 18.1589C39.4442 18.2744 39.3544 18.4282 39.3177 18.5981C39.0661 19.7289 38.612 20.8048 37.9772 21.7739C37.8826 21.9204 37.8372 22.0932 37.8476 22.2672C37.8579 22.4413 37.9234 22.6075 38.0346 22.7418L39.3497 24.3282L37.7365 25.9414L36.1492 24.6269C36.0133 24.5143 35.8447 24.4486 35.6685 24.4394C35.4922 24.4303 35.3177 24.4782 35.1709 24.5761C34.2079 25.2134 33.1346 25.6658 32.006 25.9102C31.8355 25.9486 31.6815 26.0399 31.566 26.1711C31.4505 26.3023 31.3794 26.4667 31.3629 26.6407L31.1641 28.711H28.8696L28.6704 26.6407C28.6537 26.4671 28.5825 26.3033 28.467 26.1728C28.3514 26.0423 28.1975 25.9517 28.0273 25.9141C26.8966 25.6618 25.8209 25.207 24.8521 24.5718C24.7057 24.4772 24.5329 24.4316 24.3588 24.4418C24.1848 24.452 24.0185 24.5174 23.8841 24.6284L22.2969 25.9425L20.6842 24.3282L21.9987 22.7409C22.1112 22.605 22.177 22.4363 22.1861 22.2601C22.1952 22.0838 22.1472 21.9093 22.0493 21.7625C21.4122 20.7995 20.9599 19.7263 20.7156 18.5977C20.6788 18.4277 20.589 18.2738 20.459 18.1582C20.3291 18.0426 20.1658 17.9713 19.9927 17.9546L17.9302 17.7554L17.9297 15.4618Z" fill="#FF832A"/>
<path d="M30.017 24.7969C31.6365 24.7969 33.2197 24.3166 34.5663 23.4169C35.9129 22.5171 36.9624 21.2382 37.5822 19.742C38.2019 18.2457 38.3641 16.5993 38.0481 15.0109C37.7321 13.4225 36.9523 11.9634 35.8071 10.8182C34.6619 9.67306 33.2028 8.89319 31.6144 8.57725C30.026 8.26131 28.3795 8.42349 26.8833 9.04327C25.3871 9.66305 24.1082 10.7126 23.2085 12.0592C22.3087 13.4058 21.8285 14.989 21.8285 16.6085C21.831 18.7795 22.6945 20.8608 24.2296 22.3959C25.7647 23.931 27.846 24.7945 30.017 24.7969ZM30.017 10.0607C31.312 10.0607 32.578 10.4447 33.6548 11.1642C34.7316 11.8837 35.5708 12.9063 36.0664 14.1028C36.562 15.2992 36.6917 16.6158 36.439 17.8859C36.1864 19.1561 35.5627 20.3228 34.647 21.2385C33.7313 22.1543 32.5646 22.7779 31.2944 23.0306C30.0242 23.2832 28.7077 23.1535 27.5112 22.6579C26.3148 22.1624 25.2921 21.3231 24.5726 20.2463C23.8532 19.1695 23.4691 17.9036 23.4691 16.6085C23.4712 14.8726 24.1617 13.2084 25.3893 11.9809C26.6168 10.7535 28.281 10.063 30.017 10.061V10.0607Z" fill="#FF832A"/>
<path d="M28.5534 19.1126C28.7067 19.2622 28.9123 19.3459 29.1265 19.3459C29.3406 19.3459 29.5463 19.2622 29.6995 19.1126L33.626 15.279C33.704 15.204 33.7664 15.1142 33.8096 15.015C33.8528 14.9157 33.8759 14.8089 33.8776 14.7007C33.8793 14.5925 33.8596 14.485 33.8196 14.3844C33.7795 14.2838 33.72 14.1922 33.6444 14.1147C33.5688 14.0373 33.4786 13.9756 33.379 13.9331C33.2795 13.8907 33.1725 13.8684 33.0642 13.8675C32.956 13.8666 32.8487 13.8871 32.7484 13.9279C32.6481 13.9686 32.5569 14.0288 32.48 14.105L29.1265 17.3789L27.52 15.8104C27.4431 15.7343 27.3519 15.6741 27.2516 15.6333C27.1513 15.5925 27.044 15.572 26.9357 15.5729C26.8275 15.5738 26.7205 15.5961 26.621 15.6385C26.5214 15.681 26.4312 15.7427 26.3556 15.8202C26.28 15.8976 26.2205 15.9893 26.1804 16.0898C26.1404 16.1904 26.1207 16.2979 26.1224 16.4061C26.1241 16.5143 26.1472 16.6212 26.1904 16.7204C26.2336 16.8197 26.296 16.9094 26.374 16.9844L28.5534 19.1126Z" fill="#FF832A"/>
</svg>
