<svg width="60" height="60" viewBox="0 0 60 60" fill="none" xmlns="http://www.w3.org/2000/svg">
<path d="M10.5012 23.7891H10.4777C10.0645 23.7897 9.65543 23.8721 9.27412 24.0314C8.89282 24.1908 8.5468 24.424 8.25599 24.7176C7.96517 25.0112 7.7353 25.3594 7.57962 25.7422C7.42393 26.125 7.3455 26.5349 7.34883 26.9481C7.35342 27.7841 7.68633 28.5848 8.27579 29.1776C8.86526 29.7704 9.66406 30.1079 10.5 30.1172H10.5234C11.3653 30 12.1543 29.749 12.7452 29.1495C13.0369 28.8525 13.2671 28.5009 13.4227 28.1148C13.5783 27.7287 13.6562 27.3157 13.6519 26.8995C13.6449 26.0697 13.3094 25.2765 12.7189 24.6936C12.1284 24.1106 11.331 23.7854 10.5012 23.7891ZM10.5116 28.4201C10.1111 28.4223 9.72586 28.2661 9.44005 27.9855C9.29852 27.8496 9.18571 27.6867 9.10833 27.5065C9.03095 27.3262 8.99057 27.1322 8.98958 26.936C8.98812 26.7384 9.02587 26.5424 9.10064 26.3594C9.17542 26.1764 9.28573 26.0101 9.4252 25.87C9.56467 25.7299 9.73053 25.6189 9.91319 25.5433C10.0958 25.4677 10.2917 25.4291 10.4893 25.4297H10.5011C10.6975 25.4262 10.8928 25.4618 11.0754 25.5343C11.258 25.6068 11.4245 25.7149 11.565 25.8523C11.7055 25.9896 11.8174 26.1535 11.8941 26.3345C11.9708 26.5154 12.0107 26.7098 12.0117 26.9063C12.0127 27.1042 11.9747 27.3004 11.8999 27.4836C11.825 27.6668 11.7148 27.8335 11.5755 27.9741C11.4362 28.1147 11.2705 28.2264 11.088 28.303C10.9055 28.3795 10.7096 28.4193 10.5117 28.4201H10.5116Z" fill="#181818"/>
<path d="M54.7318 22.6523C54.7363 22.6167 54.7384 22.5807 54.7382 22.5448C54.7371 21.2185 54.2558 19.9374 53.3834 18.9386C53.1585 18.6841 52.9079 18.4535 52.6356 18.2507L55.5059 18.2285C55.6169 18.2277 55.7266 18.2043 55.8284 18.1598C55.9301 18.1153 56.0217 18.0506 56.0977 17.9697C56.1737 17.8887 56.2325 17.7931 56.2705 17.6888C56.3085 17.5845 56.3249 17.4735 56.3187 17.3626C56.2641 16.6749 56.1244 15.9966 55.9028 15.3432C55.418 13.9232 53.9235 13.0078 52.089 13.0078H52.048C50.9359 13.0078 48.9206 13.0267 47.9986 13.0298L46.1549 9.68156C44.8676 7.41293 42.9976 4.80469 39.9244 4.80469H39.8842L17.4926 4.98047C14.9688 4.99898 12.742 6.76734 11.2204 9.95109L9.34665 13.332C8.42684 13.3369 6.3879 13.3493 5.26149 13.3576C3.40829 13.3712 1.90887 14.3095 1.44118 15.747C1.22932 16.4026 1.09962 17.0819 1.05504 17.7695C1.05041 17.8805 1.06812 17.9912 1.10714 18.0952C1.14615 18.1992 1.20567 18.2943 1.28216 18.3748C1.35865 18.4554 1.45054 18.5197 1.55239 18.564C1.65423 18.6083 1.76394 18.6317 1.87501 18.6328H1.88215L4.69922 18.6036C3.47754 19.5529 2.6986 21.1225 2.71196 22.9302C2.71221 22.9643 2.71464 22.9983 2.71922 23.032L4.11012 33.4056C4.12935 34.1191 4.39628 34.8038 4.86513 35.342C5.33398 35.8803 5.97552 36.2386 6.67969 36.3555L6.70419 39.6772C6.70827 40.1899 6.91514 40.6801 7.27957 41.0407C7.644 41.4013 8.13636 41.6029 8.64903 41.6016H8.66379L12.079 41.5795C12.5945 41.5754 13.0873 41.367 13.4493 40.9999C13.8112 40.6329 14.0128 40.1372 14.0097 39.6217L13.9855 36.3456L23.8392 36.2734C23.8066 36.7121 23.79 37.1531 23.7893 37.5966C23.7893 47.2891 31.6747 55.1747 41.3674 55.1747C51.0601 55.1747 58.9456 47.2894 58.9456 37.5966C58.9578 33.2075 57.3157 28.975 54.3465 25.7426L54.7318 22.6523ZM52.06 14.6546C53.1775 14.6457 54.0977 15.1375 54.3502 15.8764C54.4301 16.112 54.4966 16.352 54.5494 16.5952L49.9847 16.6303L48.9023 14.6701C49.9083 14.6661 51.2331 14.6602 52.0601 14.6543L52.06 14.6546ZM12.6673 10.7296C12.6756 10.7147 12.6833 10.6995 12.6907 10.6841C13.4073 9.17824 14.9855 6.63914 17.5048 6.62062L39.8963 6.44531H39.9245C41.6852 6.44531 43.1237 7.66523 44.7234 10.4843L48.5129 17.3537L44.5037 17.3858C44.3297 16.0704 43.6813 14.8639 42.6803 13.9929C41.6793 13.122 40.3947 12.6467 39.0679 12.6562H39.0263C37.6902 12.6565 36.4008 13.1482 35.4039 14.0377C34.4069 14.9272 33.7719 16.1524 33.6199 17.4798L8.82821 17.6569L12.6673 10.7296ZM42.8462 17.4006L35.2774 17.4564C35.4305 16.5705 35.8921 15.7674 36.5804 15.1891C37.2687 14.6109 38.1395 14.2948 39.0384 14.2969H39.0676C39.5661 14.2915 40.0608 14.3843 40.5235 14.5702C40.9861 14.756 41.4076 15.0311 41.7639 15.3798C42.3267 15.924 42.7051 16.6306 42.8462 17.4006ZM2.81368 16.9745C2.8625 16.7311 2.9251 16.4907 3.00118 16.2545C3.2427 15.5118 4.15571 15.0073 5.27309 14.9991C6.10208 14.993 7.42594 14.9852 8.4334 14.9797L7.34872 16.9351L2.81368 16.9745ZM12.0669 39.942L8.65172 39.9671C8.5715 39.9654 8.49472 39.9342 8.43598 39.8795C8.40745 39.8515 8.38474 39.8181 8.36916 39.7813C8.35357 39.7445 8.34542 39.705 8.34516 39.665L8.32102 36.3881L12.3449 36.3585L12.369 39.6354C12.3695 39.7161 12.338 39.7937 12.2814 39.8511C12.2247 39.9086 12.1476 39.9413 12.0669 39.942ZM24.0389 34.6304L7.18934 34.7557C6.81094 34.7566 6.44746 34.6082 6.17778 34.3427C6.04351 34.2118 5.93655 34.0554 5.86309 33.8829C5.78963 33.7103 5.75113 33.5248 5.74981 33.3373C5.74943 33.3028 5.74689 33.2685 5.74219 33.2344L4.35247 22.866C4.35903 20.7132 5.82153 19.4052 7.29575 19.3068C7.33953 19.3201 7.38433 19.3299 7.42969 19.3359H7.43579L49.872 19.0034C49.8781 19.0034 49.8837 18.9844 49.8901 18.9844H49.9181C50.3437 18.9869 50.7637 19.081 51.1497 19.2602C51.5358 19.4394 51.8787 19.6995 52.1554 20.0229C52.7494 20.7144 53.0826 21.592 53.0971 22.5035L52.8724 24.3054C49.8951 21.729 46.1393 20.2265 42.2065 20.0385C38.2737 19.8505 34.3916 20.988 31.1822 23.2686C29.8337 24.2284 28.6268 25.373 27.5968 26.6687L27.5831 24.8033C27.5816 24.5858 27.4937 24.3777 27.3387 24.225C27.1838 24.0722 26.9745 23.9873 26.757 23.9889C26.5394 23.9904 26.3314 24.0783 26.1786 24.2333C26.0259 24.3882 25.941 24.5975 25.9425 24.815L25.9583 26.9611C25.96 27.1774 26.0473 27.3841 26.201 27.5363C26.3547 27.6884 26.5624 27.7735 26.7786 27.773H26.7844C25.3921 29.8374 24.4563 32.1751 24.0393 34.63L24.0389 34.6304ZM57.3047 37.5968C57.3047 46.3847 50.1552 53.5343 41.3672 53.5343C32.5792 53.5343 25.4297 46.3848 25.4297 37.5968C25.4297 33.3699 27.1088 29.3161 30.0977 26.3273C33.0865 23.3384 37.1403 21.6593 41.3672 21.6593C45.5941 21.6593 49.6478 23.3384 52.6367 26.3273C55.6256 29.3161 57.3047 33.3699 57.3047 37.5968Z" fill="#181818"/>
<path d="M22.7836 24.0235H22.7775C22.6698 24.0237 22.5632 24.0453 22.4639 24.0869C22.3646 24.1285 22.2745 24.1894 22.1988 24.2659C22.1231 24.3425 22.0633 24.4333 22.0229 24.5331C21.9824 24.6329 21.9621 24.7398 21.9632 24.8474L21.979 26.9774C21.9802 27.0837 22.0024 27.1887 22.0443 27.2863C22.0862 27.3839 22.1471 27.4723 22.2233 27.5463C22.2996 27.6203 22.3898 27.6785 22.4886 27.7175C22.5875 27.7565 22.6931 27.7755 22.7993 27.7735H22.8054C22.9123 27.7749 23.0184 27.755 23.1175 27.7148C23.2166 27.6747 23.3068 27.6152 23.3826 27.5399C23.4584 27.4645 23.5185 27.3747 23.5592 27.2759C23.5999 27.177 23.6205 27.071 23.6197 26.9641L23.6039 24.8268C23.6029 24.7202 23.5809 24.6148 23.5391 24.5166C23.4973 24.4185 23.4366 24.3296 23.3604 24.255C23.2842 24.1804 23.194 24.1215 23.095 24.0818C22.9961 24.0421 22.8902 24.0223 22.7836 24.0235Z" fill="#181818"/>
<path d="M18.8045 24.0234H18.7984C18.5794 24.0273 18.3708 24.1176 18.2182 24.2747C18.0656 24.4319 17.9815 24.643 17.9841 24.862L18 27.0434C18.0004 27.2633 18.0861 27.4746 18.2391 27.6326C18.3921 27.7907 18.6005 27.8832 18.8203 27.8906H18.8264C19.0469 27.8834 19.2557 27.79 19.408 27.6304C19.5603 27.4708 19.6439 27.2578 19.6407 27.0373L19.6248 24.8633C19.6242 24.6441 19.5382 24.4338 19.385 24.277C19.2318 24.1202 19.0236 24.0292 18.8045 24.0234Z" fill="#181818"/>
<path d="M51.7952 29.1711L41.7348 24.2327C41.6218 24.1776 41.4978 24.1489 41.3721 24.1489C41.2464 24.1489 41.1224 24.1776 41.0094 24.2327L30.9415 29.1563C30.802 29.2232 30.6839 29.3275 30.6004 29.4577C30.5169 29.5879 30.4713 29.7388 30.4688 29.8934V39.3153C30.4688 41.8313 32.1101 44.9132 34.1903 46.3314L40.8991 50.903C41.0362 50.996 41.198 51.0456 41.3636 51.0456C41.5292 51.0456 41.691 50.996 41.8281 50.903L48.5429 46.3314C50.6232 44.9135 52.2652 41.8314 52.2652 39.3153V29.9074C52.2629 29.7531 52.2177 29.6026 52.1347 29.4725C52.0517 29.3425 51.9342 29.2381 51.7952 29.1711ZM50.625 39.3147C50.625 41.2769 49.2422 43.8692 47.6197 44.9755L41.3736 49.2318L35.1175 44.9755C33.4949 43.8692 32.1094 41.2769 32.1094 39.3147V30.4051L41.3672 25.8827L50.625 30.4178V39.3147Z" fill="#FF832A"/>
<path d="M37.5016 36.3701C37.4289 36.2898 37.341 36.2247 37.2429 36.1785C37.1449 36.1324 37.0387 36.1061 36.9305 36.1012C36.8222 36.0964 36.7141 36.113 36.6123 36.1501C36.5105 36.1873 36.4171 36.2442 36.3375 36.3177C36.2578 36.3912 36.1935 36.4797 36.1482 36.5781C36.103 36.6766 36.0777 36.783 36.0738 36.8913C36.0699 36.9996 36.0875 37.1076 36.1256 37.209C36.1637 37.3104 36.2215 37.4033 36.2957 37.4823L39.3843 40.8315C39.5314 40.9911 39.7358 41.0859 39.9527 41.095C40.1696 41.1042 40.3813 41.027 40.5414 40.8804L46.3901 35.5232C46.5505 35.3762 46.646 35.1715 46.6555 34.9542C46.665 34.7368 46.5878 34.5246 46.4409 34.3641C46.2939 34.2037 46.0892 34.1082 45.8719 34.0987C45.6545 34.0892 45.4423 34.1664 45.2818 34.3133L40.0361 39.118L37.5016 36.3701Z" fill="#FF832A"/>
</svg>
