<svg width="60" height="60" viewBox="0 0 60 60" fill="none" xmlns="http://www.w3.org/2000/svg">
<path d="M4.95598 36.3287L7.68645 36.5921C7.99039 37.732 8.44978 38.8246 9.05168 39.8391L7.31367 41.9368C7.18333 42.0941 7.11637 42.2943 7.12588 42.4984C7.1354 42.7025 7.22071 42.8956 7.36512 43.0401L10.5202 46.1953C10.6646 46.3397 10.8577 46.425 11.0618 46.4346C11.2658 46.4441 11.466 46.3772 11.6234 46.2469L13.7263 44.5054C14.7406 45.1057 15.8313 45.5665 16.9688 45.8753L17.2322 48.6016C17.2521 48.8038 17.3468 48.9912 17.4979 49.1271C17.6489 49.2629 17.8453 49.3374 18.0484 49.3359H22.5209C22.7241 49.3375 22.9205 49.263 23.0716 49.1272C23.2227 48.9913 23.3175 48.8038 23.3374 48.6016L23.6009 45.8722C24.7406 45.5685 25.8331 45.1094 26.8477 44.5078L28.9453 46.2461C29.1026 46.3765 29.3028 46.4435 29.5069 46.434C29.7109 46.4246 29.9041 46.3393 30.0486 46.1949L33.2033 43.0405C33.3477 42.896 33.4331 42.7029 33.4427 42.4989C33.4523 42.2949 33.3854 42.0946 33.2551 41.9373L31.5141 39.8342C32.1144 38.8197 32.5753 37.729 32.8842 36.5914L35.583 36.3281C35.7862 36.3085 35.9749 36.2142 36.1126 36.0635C36.2502 35.9128 36.327 35.7163 36.3281 35.5122V31.0398C36.3271 30.8354 36.2503 30.6386 36.1124 30.4878C35.9746 30.3369 35.7856 30.2426 35.5821 30.2232L32.8467 29.9598C32.542 28.8198 32.0819 27.7272 31.4794 26.7127L33.2162 24.6151C33.3459 24.4584 33.4128 24.2592 33.4038 24.056C33.3949 23.8528 33.3108 23.6602 33.1679 23.5155L30.053 20.3608C29.9088 20.2148 29.7152 20.1281 29.5103 20.1179C29.3053 20.1076 29.104 20.1745 28.946 20.3054L26.8431 22.0464C25.8288 21.4462 24.7382 20.9855 23.6009 20.6765L23.3374 17.9555C23.3173 17.7539 23.2222 17.5671 23.071 17.4321C22.9198 17.2971 22.7235 17.2238 22.5209 17.2265H18.0484C17.8457 17.2238 17.6494 17.2971 17.4982 17.4321C17.347 17.5671 17.252 17.7539 17.2318 17.9555L16.9688 20.6824C15.829 20.9856 14.7364 21.4443 13.7217 22.0455L11.6241 20.3064C11.4668 20.176 11.2666 20.109 11.0625 20.1184C10.8585 20.1278 10.6653 20.2131 10.5207 20.3574L7.36606 23.5118C7.22166 23.6562 7.13633 23.8493 7.12675 24.0533C7.11717 24.2573 7.18403 24.4575 7.31426 24.6148L9.0559 26.7178C8.45534 27.7319 7.99427 28.8224 7.68516 29.9598L4.95598 30.2226C4.75334 30.2424 4.5654 30.3372 4.42902 30.4883C4.29264 30.6395 4.21765 30.8362 4.21875 31.0398V35.5122C4.21779 35.7157 4.29286 35.9122 4.42923 36.0632C4.5656 36.2143 4.75345 36.3089 4.95598 36.3287ZM5.85938 31.7847L8.42778 31.5368C8.60067 31.52 8.76373 31.4486 8.89335 31.333C9.02297 31.2174 9.11241 31.0635 9.14871 30.8936C9.44949 29.54 9.99273 28.252 10.7522 27.0918C10.8467 26.9453 10.892 26.7724 10.8815 26.5984C10.8711 26.4243 10.8055 26.2581 10.6942 26.1239L9.05356 24.1434L11.1519 22.0449L13.1324 23.6855C13.2683 23.7981 13.4369 23.8637 13.6131 23.8729C13.7893 23.882 13.9637 23.834 14.1105 23.7362C15.2643 22.9729 16.55 22.4311 17.902 22.1384C18.0711 22.1044 18.2249 22.017 18.3407 21.8891C18.4564 21.7612 18.5281 21.5996 18.5452 21.4279L18.7935 18.8671H21.7758L22.0237 21.4273C22.0406 21.5997 22.1121 21.7622 22.2278 21.8912C22.3435 22.0201 22.4973 22.1088 22.6669 22.1442C24.0204 22.4441 25.3085 22.9866 26.4688 23.7455C26.6154 23.8399 26.7883 23.8851 26.9623 23.8745C27.1363 23.864 27.3025 23.7983 27.4366 23.6869L29.4141 22.0487L31.4788 24.1406L29.8359 26.124C29.7234 26.2599 29.6577 26.4284 29.6485 26.6047C29.6394 26.7809 29.6873 26.9553 29.7852 27.1021C30.5484 28.2559 31.0902 29.5416 31.3828 30.8936C31.4205 31.064 31.5112 31.218 31.642 31.3335C31.7727 31.4491 31.9366 31.5202 32.1103 31.5368L34.6875 31.7847V34.7681L32.1492 35.0156C31.976 35.0324 31.8126 35.1037 31.6824 35.2192C31.5523 35.3348 31.4621 35.4886 31.4249 35.6586C31.1234 37.0123 30.5795 38.3003 29.8194 39.4604C29.7248 39.6068 29.6793 39.7796 29.6896 39.9537C29.6998 40.1277 29.7652 40.294 29.8764 40.4284L31.5163 42.4088L29.4176 44.5074L27.4371 42.8668C27.3012 42.7542 27.1326 42.6885 26.9564 42.6794C26.7801 42.6702 26.6057 42.7182 26.4588 42.816C25.305 43.5795 24.0191 44.1214 22.6669 44.414C22.4974 44.4492 22.3436 44.5376 22.2279 44.6664C22.1122 44.7952 22.0407 44.9575 22.0237 45.1298L21.7758 47.6953H18.7935L18.5454 45.1298C18.5286 44.9571 18.4572 44.7942 18.3415 44.6649C18.2259 44.5355 18.072 44.4463 17.9023 44.4104C16.5487 44.1099 15.2607 43.5669 14.1005 42.8076C13.9538 42.7132 13.781 42.668 13.6069 42.6786C13.4328 42.6891 13.2667 42.7548 13.1325 42.8662L11.152 44.5068L9.05344 42.4084L10.6941 40.4279C10.8066 40.292 10.8723 40.1234 10.8815 39.9472C10.8906 39.771 10.8427 39.5965 10.7448 39.4497C9.98132 38.2961 9.43931 37.0103 9.14649 35.6582C9.11068 35.4885 9.02168 35.3347 8.89243 35.219C8.76318 35.1033 8.60041 35.0319 8.42778 35.0151L5.85938 34.7671V31.7847Z" fill="#181818"/>
<path d="M20.2852 42.804C22.1697 42.8042 24.0119 42.2455 25.5788 41.1986C27.1458 40.1517 28.3672 38.6637 29.0884 36.9227C29.8097 35.1817 29.9985 33.2659 29.6309 31.4176C29.2634 29.5693 28.3559 27.8715 27.0235 26.5389C25.691 25.2063 23.9932 24.2988 22.1449 23.9311C20.2967 23.5634 18.3809 23.752 16.6398 24.4731C14.8987 25.1943 13.4106 26.4155 12.3636 27.9824C11.3166 29.5493 10.7578 31.3915 10.7578 33.276C10.7607 35.802 11.7654 38.2237 13.5515 40.0099C15.3376 41.7961 17.7592 42.8009 20.2852 42.804ZM20.2852 25.3886C21.8452 25.3884 23.3702 25.8509 24.6674 26.7175C25.9645 27.5841 26.9756 28.8159 27.5727 30.2571C28.1698 31.6983 28.3261 33.2843 28.0218 34.8143C27.7176 36.3444 26.9664 37.7498 25.8634 38.853C24.7603 39.9561 23.3549 40.7074 21.8249 41.0118C20.2948 41.3162 18.7089 41.16 17.2676 40.5631C15.8264 39.9661 14.5945 38.9552 13.7278 37.6581C12.861 36.361 12.3984 34.836 12.3984 33.276C12.4008 31.185 13.2324 29.1802 14.711 27.7016C16.1895 26.2229 18.1941 25.3911 20.2852 25.3886Z" fill="#181818"/>
<path d="M53.6883 22.1778C53.7052 21.456 53.6383 20.7347 53.4891 20.0283L54.9057 19.081C55.0751 18.9677 55.1963 18.7954 55.2456 18.5977C55.295 18.4001 55.269 18.1911 55.1727 18.0115L53.7079 15.2792C53.6115 15.0994 53.4516 14.962 53.2595 14.8937C53.0673 14.8255 52.8566 14.8312 52.6684 14.9099L51.0718 15.5779C50.5676 15.0602 50.0039 14.6039 49.3925 14.2185L49.7324 12.5397C49.7727 12.3403 49.7375 12.1332 49.6337 11.9583C49.5298 11.7835 49.3648 11.6534 49.1705 11.5934L46.2342 10.6865C46.0382 10.6259 45.8266 10.641 45.6411 10.7287C45.4557 10.8165 45.3098 10.9706 45.2324 11.1606L44.5841 12.7517C43.8626 12.7348 43.1416 12.8014 42.4353 12.9502L41.4744 11.5101C41.3613 11.3404 41.189 11.219 40.9911 11.1695C40.7933 11.12 40.5841 11.1459 40.4044 11.2423L37.672 12.7071C37.4923 12.8035 37.3549 12.9633 37.2866 13.1555C37.2183 13.3477 37.2241 13.5584 37.3028 13.7466L37.9707 15.3431C37.4531 15.8475 36.9968 16.4111 36.6114 17.0224L34.9325 16.6826C34.7322 16.6421 34.524 16.6778 34.3486 16.7827C34.1732 16.8877 34.0433 17.0543 33.9844 17.25L33.0905 20.2106C33.0314 20.4062 33.0475 20.6168 33.1355 20.8011C33.2235 20.9855 33.3771 21.1304 33.5662 21.2074L35.1574 21.8555C35.1404 22.577 35.207 23.298 35.3559 24.0041L33.9159 24.9651C33.7463 25.0782 33.6248 25.2505 33.5753 25.4483C33.5258 25.6462 33.5517 25.8553 33.648 26.0351L35.1129 28.7674C35.2093 28.9472 35.3691 29.0846 35.5613 29.1528C35.7535 29.221 35.9642 29.2153 36.1523 29.1366L37.7488 28.4686C38.2532 28.9862 38.8168 29.4425 39.4281 29.828L39.0882 31.5067C39.0478 31.7069 39.0834 31.915 39.1883 32.0903C39.2931 32.2656 39.4596 32.3954 39.6551 32.4545L42.6158 33.3485C42.8114 33.4077 43.022 33.3917 43.2064 33.3037C43.3908 33.2157 43.5356 33.062 43.6126 32.8727L44.2609 31.2817C44.9824 31.2986 45.7034 31.232 46.4096 31.0833L47.3706 32.5233C47.4837 32.6929 47.656 32.8144 47.8539 32.8639C48.0517 32.9134 48.2609 32.8874 48.4406 32.7911L51.173 31.3262C51.3527 31.2299 51.4901 31.07 51.5584 30.8779C51.6266 30.6857 51.6209 30.475 51.5422 30.2869L50.8743 28.6903C51.3919 28.186 51.8482 27.6223 52.2336 27.011L53.9125 27.3509C54.1127 27.3913 54.3208 27.3557 54.4961 27.2508C54.6714 27.1459 54.8012 26.9795 54.8603 26.7839L55.7542 23.8233C55.8132 23.6278 55.7972 23.4172 55.7092 23.2329C55.6213 23.0485 55.4677 22.9036 55.2785 22.8265L53.6883 22.1778ZM53.5064 25.5945L51.9844 25.2865C51.8114 25.2517 51.6318 25.2734 51.4722 25.3486C51.3126 25.4239 51.1814 25.5485 51.0982 25.704C50.6581 26.5203 50.07 27.2475 49.3638 27.8486C49.2314 27.9613 49.1382 28.1132 49.0977 28.2824C49.0573 28.4516 49.0716 28.6292 49.1387 28.7897L49.7418 30.2318L48.3226 30.9928L47.4554 29.692C47.3589 29.5473 47.2189 29.4371 47.0556 29.3771C46.8923 29.3172 46.7142 29.3107 46.547 29.3586C45.6504 29.6098 44.7158 29.6965 43.7884 29.6147C43.6146 29.6008 43.4409 29.6425 43.2924 29.7338C43.1439 29.8252 43.0284 29.9614 42.9625 30.1228L42.3765 31.5613L40.8457 31.0991L41.1536 29.5765C41.1885 29.4035 41.1668 29.2239 41.0915 29.0643C41.0163 28.9047 40.8917 28.7736 40.736 28.6904C39.9197 28.2504 39.1925 27.6623 38.5915 26.9561C38.4787 26.8236 38.3268 26.7303 38.1576 26.6899C37.9884 26.6494 37.8107 26.6637 37.6502 26.7308L36.2081 27.3339L35.4472 25.9147L36.748 25.0476C36.8921 24.9509 37.0019 24.8111 37.0615 24.6481C37.1212 24.4852 37.1276 24.3075 37.0799 24.1406C36.8288 23.2441 36.742 22.3096 36.8237 21.3822C36.8378 21.2084 36.7962 21.0346 36.7048 20.8861C36.6135 20.7376 36.4772 20.622 36.3157 20.5562L34.8771 19.9703L35.3393 18.4396L36.862 18.7474C37.035 18.7824 37.2146 18.7606 37.3742 18.6854C37.5339 18.6101 37.665 18.4854 37.7481 18.3298C38.1881 17.5135 38.7763 16.7863 39.4825 16.1853C39.6149 16.0725 39.7081 15.9206 39.7486 15.7514C39.789 15.5823 39.7747 15.4046 39.7076 15.2441L39.1045 13.802L40.5237 13.041L41.3909 14.3418C41.4874 14.4865 41.6274 14.5968 41.7908 14.6567C41.9541 14.7166 42.1322 14.723 42.2994 14.6751C43.196 14.4241 44.1305 14.3374 45.0579 14.419C45.2317 14.4334 45.4056 14.3918 45.5542 14.3004C45.7028 14.209 45.8183 14.0725 45.8838 13.9109L46.4682 12.4769L47.9774 12.943L47.6686 14.4703C47.6336 14.6433 47.6554 14.8229 47.7306 14.9825C47.8058 15.1421 47.9305 15.2732 48.0861 15.3564C48.9024 15.7964 49.6296 16.3846 50.2307 17.0908C50.3434 17.2232 50.4953 17.3165 50.6645 17.3569C50.8337 17.3974 51.0113 17.3831 51.1718 17.316L52.614 16.713L53.3757 18.1328L52.0984 18.9869C51.9539 19.0835 51.8439 19.2234 51.7841 19.3866C51.7243 19.5498 51.7179 19.7278 51.7658 19.8948C52.0168 20.7914 52.1036 21.726 52.022 22.6534C52.0079 22.8272 52.0496 23.0009 52.1409 23.1494C52.2323 23.2979 52.3686 23.4134 52.53 23.4792L53.9686 24.0652L53.5064 25.5945Z" fill="#FF832A"/>
<path d="M46.4047 15.4527C44.8862 14.9942 43.2556 15.0764 41.7909 15.6854C40.3262 16.2943 39.1179 17.3923 38.372 18.7922C37.626 20.1921 37.3886 21.8074 37.7 23.3628C38.0115 24.9182 38.8527 26.3174 40.0802 27.3221C41.3077 28.3269 42.8456 28.8749 44.4318 28.8728C46.0181 28.8708 47.5546 28.3188 48.7795 27.3109C50.0044 26.303 50.8419 24.9016 51.1494 23.3454C51.4568 21.7892 51.2152 20.1746 50.4656 18.7766C50.0421 17.9816 49.4652 17.2785 48.7681 16.7079C48.071 16.1374 47.2678 15.7107 46.4047 15.4527ZM49.4165 23.5242C49.0676 24.6794 48.329 25.6778 47.3266 26.3495C46.3241 27.0211 45.1197 27.3244 43.9187 27.2077C42.7177 27.0909 41.5943 26.5614 40.74 25.7092C39.8856 24.857 39.3532 23.735 39.2334 22.5343C39.1135 21.3336 39.4138 20.1285 40.0828 19.1243C40.7519 18.1201 41.7485 17.379 42.9028 17.0272C44.057 16.6754 45.2976 16.7347 46.413 17.195C47.5284 17.6553 48.4498 18.4881 49.02 19.5515C49.3454 20.1546 49.548 20.8163 49.616 21.4982C49.684 22.1801 49.6164 22.8687 49.4165 23.5242Z" fill="#FF832A"/>
</svg>
