<svg width="60" height="60" viewBox="0 0 60 60" fill="none" xmlns="http://www.w3.org/2000/svg">
<path d="M14.1026 41.8359H14.0812C13.3198 41.8386 12.5906 42.1437 12.054 42.684C11.5175 43.2244 11.2176 43.9557 11.2203 44.7172C11.223 45.4786 11.5281 46.2078 12.0684 46.7444C12.6087 47.2809 13.3401 47.5808 14.1015 47.5781H14.1233C14.8846 47.5724 15.6128 47.2666 16.15 46.7272C16.6871 46.1877 16.9898 45.4581 16.9922 44.6968V44.6851C16.9922 43.116 15.6689 41.8359 14.1026 41.8359ZM14.1112 45.9332C13.9514 45.9344 13.7928 45.904 13.6446 45.8439C13.4964 45.7838 13.3616 45.6951 13.2477 45.5829C13.1338 45.4706 13.0431 45.3371 12.9809 45.1898C12.9186 45.0425 12.886 44.8844 12.8849 44.7245C12.8815 44.3983 13.0074 44.084 13.235 43.8503C13.3461 43.7341 13.4792 43.6413 13.6266 43.5771C13.774 43.5129 13.9326 43.4788 14.0933 43.4766H14.1025C14.4263 43.4783 14.7363 43.6079 14.9651 43.8372C15.1939 44.0664 15.3229 44.3767 15.324 44.7005C15.3252 45.0244 15.1984 45.3356 14.9713 45.5664C14.7442 45.7972 14.4351 45.9291 14.1112 45.9332Z" fill="black"/>
<path d="M46.0159 41.6016H45.9946C45.2331 41.6043 44.5039 41.9093 43.9674 42.4497C43.4309 42.99 43.131 43.7214 43.1337 44.4829C43.1364 45.2443 43.4415 45.9735 43.9818 46.51C44.5222 47.0466 45.2535 47.3465 46.015 47.3438H46.0368C46.4126 47.3428 46.7845 47.2668 47.1305 47.12C47.4765 46.9733 47.7897 46.7588 48.0516 46.4892C48.4471 46.086 48.715 45.5752 48.822 45.0207C48.9289 44.4661 48.8702 43.8923 48.653 43.371C48.4359 42.8496 48.07 42.4037 47.601 42.0891C47.132 41.7744 46.5807 41.6048 46.0159 41.6016ZM47.2266 44.4715C47.23 44.7947 47.1053 45.1061 46.8797 45.3376C46.7688 45.4527 46.636 45.5443 46.489 45.6071C46.3421 45.6699 46.184 45.7025 46.0242 45.7031H46.015C45.6948 45.703 45.3877 45.5761 45.1608 45.3503C44.9893 45.1794 44.8718 44.9618 44.823 44.7246C44.7743 44.4875 44.7963 44.2412 44.8865 44.0165C44.9767 43.7918 45.1309 43.5985 45.3301 43.4608C45.5293 43.3232 45.7646 43.2471 46.0067 43.2422H46.0158C46.3376 43.2443 46.6456 43.3736 46.8724 43.602C47.0993 43.8303 47.2266 44.1391 47.2266 44.4609V44.4715Z" fill="black"/>
<path d="M53.8876 34.572C53.4492 33.2884 52.1045 32.4609 50.4559 32.4609H50.4196C49.4716 32.4609 47.7723 32.477 46.9413 32.4799L45.3593 29.6168C44.2198 27.6094 42.5625 25.3125 39.8229 25.3125H39.7868L20.2134 25.4546C17.9666 25.4713 15.988 27.0311 14.6398 29.8499L13.0328 32.7469C12.2027 32.7513 10.4827 32.7606 9.52207 32.7676C7.85696 32.7793 6.50789 33.6273 6.08532 34.9269C5.89737 35.5089 5.78235 36.1119 5.74289 36.7222C5.73828 36.8364 5.75625 36.9503 5.79577 37.0575C5.83528 37.1647 5.89557 37.2631 5.97317 37.347C6.04864 37.4287 6.1396 37.4947 6.24076 37.5411C6.34192 37.5875 6.45128 37.6134 6.5625 37.6172H6.56965L8.74254 37.5778C7.78067 38.4381 7.17985 39.7458 7.19075 41.2466C7.19104 41.2793 7.19351 41.312 7.19813 41.3445L8.41336 50.4048C8.43256 51.0363 8.66514 51.6426 9.07318 52.1249C9.48122 52.6072 10.0406 52.9371 10.6602 53.0606L10.6809 55.8777C10.6848 56.3524 10.8767 56.8063 11.2147 57.1397C11.5527 57.4731 12.0091 57.6589 12.4839 57.6563H12.4976L15.4829 57.6398C15.9608 57.6365 16.4179 57.4436 16.7536 57.1035C17.0894 56.7633 17.2763 56.3038 17.2734 55.8259L17.2532 53.0661L42.9892 52.8772L43.0096 55.6388C43.0134 56.1139 43.2052 56.5682 43.5431 56.9024C43.8809 57.2365 44.3373 57.4233 44.8125 57.4219H44.8262L47.8116 57.4035C48.2895 57.3999 48.7465 57.2068 49.0821 56.8665C49.4178 56.5262 49.6047 56.0667 49.6017 55.5887L49.5807 52.7605C50.1869 52.6186 50.7283 52.2783 51.1189 51.7937C51.5096 51.309 51.7271 50.7077 51.737 50.0852L52.869 41.0071C52.8735 40.9714 52.8756 40.9355 52.8754 40.8996C52.8744 39.7153 52.4445 38.5715 51.6653 37.6796C51.5287 37.5257 51.3815 37.3814 51.2249 37.2478L53.4442 37.2306C53.5553 37.2297 53.6651 37.2063 53.7669 37.1617C53.8688 37.1171 53.9605 37.0523 54.0365 36.9712C54.1125 36.8901 54.1712 36.7944 54.2091 36.69C54.247 36.5855 54.2632 36.4744 54.2569 36.3634C54.2084 35.7533 54.0844 35.1515 53.8876 34.572ZM16.0866 30.6227C16.095 30.608 16.1027 30.5927 16.11 30.5774C16.7261 29.2829 18.0798 27.1112 20.2256 27.0954L39.7989 26.9531H39.8223C41.3195 26.9531 42.5498 27.9926 43.9269 30.4193L47.1556 36.267L43.9148 36.2904C43.7414 35.1234 43.1524 34.0582 42.256 33.291C41.3597 32.5237 40.2165 32.106 39.0367 32.1146C37.8568 32.1232 36.7198 32.5577 35.8348 33.338C34.9499 34.1183 34.3765 35.192 34.2202 36.3614L12.8162 36.519L16.0866 30.6227ZM42.2505 36.3018L35.8854 36.3486C36.0367 35.6197 36.4332 34.9647 37.0089 34.4928C37.5846 34.0208 38.3046 33.7604 39.049 33.7549C39.7934 33.7494 40.5172 33.9992 41.0998 34.4626C41.6824 34.9261 42.0885 35.5752 42.2505 36.3018ZM7.5109 35.9268C7.54606 35.7718 7.58989 35.6048 7.64555 35.4338C7.84289 34.8268 8.6018 34.4142 9.53403 34.4077C10.2113 34.4026 11.2661 34.3959 12.12 34.3917L11.2866 35.8945L7.5109 35.9268ZM15.4709 55.9992L12.4855 56.0156H12.4842C12.4634 56.0166 12.4426 56.0134 12.423 56.0063C12.4034 55.9992 12.3855 55.9883 12.3701 55.9743C12.3547 55.96 12.3425 55.9427 12.3342 55.9234C12.3258 55.9042 12.3215 55.8834 12.3216 55.8625L12.3012 53.1027L15.6121 53.0793L15.6323 55.8413C15.6323 55.8623 15.6281 55.8831 15.6199 55.9025C15.6118 55.9219 15.5998 55.9394 15.5848 55.9541C15.5697 55.9689 15.5519 55.9804 15.5324 55.9882C15.5128 55.9959 15.4919 55.9997 15.4709 55.9992ZM47.799 55.7629L44.8136 55.7813H44.8125C44.7916 55.7819 44.7708 55.7785 44.7512 55.771C44.7317 55.7636 44.7138 55.7524 44.6986 55.738C44.6832 55.7235 44.6709 55.706 44.6626 55.6866C44.6542 55.6672 44.6499 55.6463 44.65 55.6252L44.6296 52.8649L47.9405 52.8415L47.9609 55.6011C47.9609 55.6224 47.9567 55.6434 47.9486 55.6631C47.9405 55.6827 47.9286 55.7006 47.9135 55.7156C47.8985 55.7306 47.8806 55.7425 47.861 55.7506C47.8413 55.7587 47.8203 55.7629 47.799 55.7629ZM51.2337 40.8493L50.1026 49.9314C50.0981 49.9671 50.096 50.003 50.0963 50.0389C50.097 50.3424 49.9779 50.6339 49.7649 50.85C49.5519 51.0662 49.2623 51.1895 48.9588 51.1932L11.2072 51.4714C10.9038 51.4723 10.6122 51.3533 10.3962 51.1402C10.2885 51.0352 10.2027 50.9099 10.1438 50.7715C10.0849 50.6332 10.054 50.4845 10.0529 50.3341C10.0527 50.2997 10.0503 50.2652 10.0457 50.231L8.83137 41.1751C8.8411 39.7357 9.75246 38.2752 11.2923 38.1751C11.3336 38.1875 11.3757 38.1967 11.4184 38.2027H11.4244L48.518 37.8898C48.5234 37.8898 48.5286 37.8511 48.5341 37.8511H48.5586C48.9174 37.8573 49.2706 37.9402 49.5946 38.0942C49.9186 38.2483 50.2059 38.4699 50.4372 38.7442C50.9388 39.3323 51.2204 40.0765 51.2337 40.8493ZM48.6773 35.6268L47.8453 34.1173C48.6988 34.1139 49.7555 34.1016 50.4318 34.1016H50.4552C51.3768 34.1016 52.131 34.5035 52.3352 35.1023C52.3938 35.2733 52.4407 35.4414 52.4775 35.5962L48.6773 35.6268Z" fill="black"/>
<path d="M35.8638 48.1641H35.8576L24.3146 48.2767C24.0981 48.2799 23.8916 48.3684 23.7399 48.5229C23.5881 48.6774 23.5035 48.8855 23.5042 49.1021C23.505 49.3186 23.5911 49.5261 23.7438 49.6796C23.8966 49.8331 24.1037 49.9201 24.3203 49.9219H24.3265L35.8695 49.8484C36.0883 49.8409 36.2956 49.7485 36.4474 49.5908C36.5993 49.4331 36.6838 49.2224 36.6831 49.0035C36.6824 48.7846 36.5964 48.5745 36.4435 48.4178C36.2906 48.2611 36.0827 48.1701 35.8638 48.1641Z" fill="black"/>
<path d="M24.853 45.5859H24.8592C24.9665 45.5864 25.0729 45.5656 25.1721 45.5247C25.2713 45.4838 25.3614 45.4236 25.4372 45.3475C25.5129 45.2715 25.5728 45.1812 25.6134 45.0818C25.6539 44.9824 25.6743 44.876 25.6734 44.7687L25.6596 42.8877C25.6581 42.6709 25.5712 42.4633 25.4176 42.3103C25.2639 42.1572 25.0561 42.071 24.8393 42.0703H24.8331C24.6146 42.0731 24.4061 42.1625 24.2534 42.3189C24.1008 42.4753 24.0164 42.6858 24.0189 42.9043L24.0327 44.777C24.0345 44.9929 24.1218 45.1994 24.2756 45.351C24.4294 45.5027 24.637 45.5871 24.853 45.5859Z" fill="black"/>
<path d="M21.3612 42.0703H21.3549C21.1351 42.076 20.9264 42.1681 20.774 42.3266C20.6216 42.4852 20.5378 42.6973 20.5407 42.9172L20.5546 44.7833C20.5556 44.8899 20.5776 44.9953 20.6194 45.0933C20.6612 45.1914 20.722 45.2803 20.7982 45.3548C20.8744 45.4294 20.9645 45.4882 21.0635 45.5278C21.1625 45.5675 21.2683 45.5872 21.3749 45.5859H21.3811C21.4877 45.5879 21.5937 45.5685 21.6927 45.5288C21.7917 45.4892 21.8818 45.4302 21.9577 45.3552C22.0336 45.2803 22.0937 45.1909 22.1345 45.0924C22.1753 44.9938 22.196 44.8881 22.1953 44.7814L22.1815 42.8941C22.1802 42.6766 22.0935 42.4683 21.9401 42.3142C21.7866 42.1601 21.5787 42.0725 21.3612 42.0703Z" fill="black"/>
<path d="M38.7524 41.9531H38.7462C38.5269 41.9576 38.3183 42.0485 38.1657 42.2061C38.0132 42.3637 37.9292 42.5752 37.932 42.7945L37.9458 44.6634C37.9467 44.7702 37.9687 44.8757 38.0105 44.9739C38.0522 45.0722 38.1129 45.1612 38.1891 45.236C38.2653 45.3108 38.3554 45.3699 38.4544 45.4098C38.5534 45.4497 38.6593 45.4697 38.7661 45.4687H38.7722C38.8791 45.4701 38.9853 45.4501 39.0844 45.4099C39.1835 45.3697 39.2736 45.3102 39.3494 45.2348C39.4252 45.1594 39.4853 45.0696 39.526 44.9707C39.5667 44.8718 39.5873 44.7658 39.5865 44.6589L39.5727 42.7741C39.5713 42.5569 39.4845 42.349 39.331 42.1953C39.1775 42.0417 38.9696 41.9547 38.7524 41.9531Z" fill="black"/>
<path d="M28.3312 45.5859H28.3373C28.4453 45.585 28.5521 45.5628 28.6515 45.5206C28.7509 45.4783 28.841 45.4169 28.9167 45.3398C28.9923 45.2627 29.052 45.1715 29.0923 45.0713C29.1326 44.9711 29.1528 44.8639 29.1517 44.7559L29.1378 42.8761C29.1364 42.6585 29.0486 42.4505 28.8938 42.2976C28.7389 42.1448 28.5297 42.0597 28.3121 42.0612C28.0946 42.0626 27.8865 42.1504 27.7337 42.3053C27.5808 42.4601 27.4958 42.6693 27.4972 42.8869L27.511 44.7682C27.5125 44.9851 27.5994 45.1926 27.753 45.3457C27.9066 45.4988 28.1144 45.5851 28.3312 45.5859Z" fill="black"/>
<path d="M31.8094 45.586H31.8156C32.035 45.5813 32.2437 45.4901 32.3962 45.3323C32.5488 45.1744 32.6327 44.9627 32.6298 44.7432L32.616 42.8749C32.615 42.7682 32.593 42.6627 32.5512 42.5645C32.5095 42.4663 32.4488 42.3773 32.3726 42.3026C32.2964 42.2279 32.2062 42.1689 32.1072 42.1291C32.0082 42.0892 31.9024 42.0693 31.7957 42.0704H31.7895C31.6826 42.0689 31.5765 42.0887 31.4774 42.1288C31.3783 42.1688 31.2882 42.2282 31.2124 42.3035C31.1365 42.3788 31.0765 42.4685 31.0358 42.5673C30.9951 42.6662 30.9745 42.7721 30.9752 42.879L30.9891 44.7645C30.9905 44.9818 31.0773 45.1897 31.2308 45.3434C31.3843 45.4972 31.5921 45.5843 31.8094 45.586Z" fill="black"/>
<path d="M35.2877 45.5859H35.2939C35.747 45.4687 36.1114 45.1832 36.1081 44.7304L36.0943 42.8378C36.0932 42.6194 36.0056 42.4104 35.8507 42.2564C35.6959 42.1024 35.4863 42.0161 35.2679 42.0162C35.1604 42.0166 35.054 42.0382 34.9548 42.0798C34.8556 42.1214 34.7656 42.1822 34.69 42.2586C34.6144 42.335 34.5545 42.4256 34.514 42.5252C34.4734 42.6248 34.453 42.7315 34.4537 42.839L34.4675 44.7444C34.468 44.9637 34.5539 45.1743 34.707 45.3314C34.8602 45.4885 35.0684 45.5798 35.2877 45.5859Z" fill="black"/>
<path d="M30 23.3067C32.2983 23.3056 34.5326 22.5491 36.3589 21.1537C38.1852 19.7582 39.5022 17.8012 40.1072 15.5839C40.7122 13.3666 40.5717 11.0119 39.7072 8.8823C38.8428 6.7527 37.3023 4.96625 35.323 3.79796C33.3437 2.62967 31.0353 2.14432 28.7531 2.41661C26.4709 2.68889 24.3415 3.70373 22.6926 5.3049C21.0438 6.90606 19.9669 9.00478 19.6277 11.278C19.2885 13.5512 19.7059 15.8729 20.8156 17.8856C21.7227 19.5272 23.053 20.8958 24.6682 21.8492C26.2834 22.8025 28.1244 23.3058 30 23.3067ZM30 3.97275C31.7505 3.97214 33.4618 4.49072 34.9176 5.46286C36.3733 6.43501 37.5081 7.81707 38.1782 9.4342C38.8484 11.0513 39.0239 12.8309 38.6826 14.5478C38.3412 16.2647 37.4983 17.8418 36.2606 19.0796C35.0228 20.3174 33.4457 21.1603 31.7288 21.5017C30.0119 21.843 28.2323 21.6676 26.6152 20.9974C24.998 20.3273 23.616 19.1925 22.6438 17.7368C21.6716 16.2811 21.153 14.5697 21.1536 12.8192C21.1562 10.4738 22.0891 8.22524 23.7476 6.56678C25.406 4.90831 27.6546 3.97541 30 3.97275Z" fill="#FF832A"/>
<path d="M30.0204 17.9123C30.0135 17.9123 30.0069 17.9112 30 17.9112C29.9931 17.9112 29.9865 17.912 29.9796 17.9123C29.4586 17.9065 28.9608 17.6957 28.5942 17.3254C28.2275 16.9552 28.0216 16.4553 28.021 15.9343C28.021 15.7167 27.9345 15.508 27.7807 15.3542C27.6269 15.2004 27.4182 15.1139 27.2006 15.1139C26.9831 15.1139 26.7744 15.2004 26.6206 15.3542C26.4668 15.508 26.3803 15.7167 26.3803 15.9343C26.3815 16.7513 26.6586 17.5439 27.1667 18.1837C27.6749 18.8235 28.3842 19.2729 29.1797 19.459V20.399C29.1797 20.6165 29.2661 20.8252 29.42 20.979C29.5738 21.1329 29.7825 21.2193 30 21.2193C30.2176 21.2193 30.4262 21.1329 30.5801 20.979C30.7339 20.8252 30.8203 20.6165 30.8203 20.399V19.459C31.6858 19.2578 32.447 18.7453 32.959 18.0191C33.4709 17.2929 33.6978 16.4037 33.5965 15.5209C33.4951 14.6382 33.0726 13.8236 32.4094 13.2323C31.7461 12.641 30.8886 12.3144 30 12.3146C29.6086 12.3146 29.2259 12.1985 28.9005 11.981C28.575 11.7635 28.3213 11.4544 28.1716 11.0928C28.0218 10.7311 27.9826 10.3332 28.059 9.94924C28.1354 9.56533 28.324 9.21269 28.6008 8.93593C28.8776 8.65918 29.2303 8.47073 29.6142 8.39442C29.9981 8.31811 30.3961 8.35736 30.7577 8.50723C31.1193 8.65709 31.4284 8.91082 31.6458 9.23634C31.8632 9.56186 31.9792 9.94453 31.9791 10.336C31.9791 10.5535 32.0655 10.7622 32.2193 10.916C32.3732 11.0699 32.5818 11.1563 32.7994 11.1563C33.017 11.1563 33.2256 11.0699 33.3794 10.916C33.5333 10.7622 33.6197 10.5535 33.6197 10.336C33.6186 9.51887 33.3416 8.72609 32.8335 8.08619C32.3253 7.44629 31.6159 6.9968 30.8203 6.81063V5.99805C30.8203 5.78049 30.7339 5.57184 30.5801 5.418C30.4262 5.26416 30.2176 5.17773 30 5.17773C29.7825 5.17773 29.5738 5.26416 29.42 5.418C29.2661 5.57184 29.1797 5.78049 29.1797 5.99805V6.81063C28.3143 7.01191 27.5532 7.52447 27.0413 8.25068C26.5295 8.9769 26.3026 9.86602 26.4039 10.7487C26.5053 11.6314 26.9278 12.446 27.5909 13.0373C28.2541 13.6286 29.1115 13.9553 30 13.9552C30.5228 13.9555 31.0242 14.1627 31.3948 14.5315C31.7653 14.9003 31.9748 15.4008 31.9775 15.9236C31.9802 16.4464 31.7758 16.949 31.4091 17.3216C31.0424 17.6942 30.5432 17.9066 30.0204 17.9123Z" fill="#FF832A"/>
</svg>
