<svg width="60" height="60" viewBox="0 0 60 60" fill="none" xmlns="http://www.w3.org/2000/svg">
<path d="M7.65563 34.0849L11.914 34.4951C12.3695 36.3053 13.0979 38.0356 14.0742 39.6265L11.3631 42.9004C11.2328 43.0577 11.1658 43.258 11.1754 43.462C11.185 43.6661 11.2703 43.8592 11.4148 44.0037L16.0255 48.6143C16.1699 48.7588 16.3631 48.8441 16.5671 48.8537C16.7712 48.8633 16.9715 48.7964 17.1288 48.6661L20.4082 45.9503C21.9999 46.9221 23.7274 47.6516 25.5339 48.115L25.944 52.3589C25.9643 52.5603 26.0595 52.7467 26.2107 52.8813C26.3619 53.0158 26.5581 53.0887 26.7605 53.0855H33.2972C33.4996 53.0887 33.6958 53.0158 33.847 52.8813C33.9982 52.7467 34.0933 52.5603 34.1136 52.3589L34.5238 48.1079C36.3338 47.6539 38.0641 46.9268 39.6552 45.9517L42.9289 48.6647C43.0862 48.7951 43.2864 48.8622 43.4904 48.8528C43.6945 48.8434 43.8877 48.7582 44.0323 48.6138L48.643 44.0037C48.7874 43.8592 48.8727 43.6661 48.8823 43.4621C48.8918 43.2581 48.8249 43.0579 48.6947 42.9006L45.9795 39.6211C46.9513 38.0292 47.6809 36.3015 48.1443 34.4948L52.3453 34.0847C52.5481 34.0649 52.7363 33.9703 52.8732 33.8194C53.0101 33.6686 53.0859 33.4721 53.0859 33.2684V26.7316C53.0859 26.5277 53.01 26.3311 52.8729 26.1801C52.7358 26.0291 52.5474 25.9347 52.3444 25.9151L48.086 25.5049C47.6305 23.6947 46.9021 21.9645 45.9258 20.3735L48.6369 17.0996C48.7666 16.943 48.8335 16.7438 48.8247 16.5406C48.8158 16.3374 48.7318 16.1448 48.5889 16.0001L44.0365 11.3893C43.8923 11.2433 43.6987 11.1567 43.4938 11.1464C43.2889 11.1361 43.0875 11.203 42.9295 11.3339L39.6502 14.0497C38.0584 13.078 36.3309 12.3484 34.5245 11.885L34.1143 7.64109C34.094 7.43971 33.9989 7.25329 33.8477 7.11874C33.6965 6.98419 33.5003 6.91131 33.2979 6.91453H26.7612C26.5588 6.91131 26.3626 6.98419 26.2114 7.11874C26.0602 7.25329 25.965 7.43971 25.9447 7.64109L25.5346 11.8921C23.7246 12.3461 21.9944 13.0732 20.4034 14.0483L17.1288 11.3358C16.9716 11.2053 16.7714 11.1383 16.5673 11.1476C16.3633 11.157 16.1701 11.2422 16.0255 11.3865L11.4148 15.9968C11.2704 16.1412 11.1851 16.3343 11.1755 16.5383C11.166 16.7423 11.2328 16.9426 11.3631 17.0999L14.0789 20.3789C13.1072 21.9706 12.3776 23.698 11.9142 25.5045L7.65563 25.9146C7.45255 25.9342 7.26407 26.0287 7.12695 26.1798C6.98984 26.3309 6.91394 26.5276 6.91406 26.7316V33.2684C6.91405 33.4723 6.99001 33.6689 7.12711 33.8199C7.26421 33.9709 7.45263 34.0653 7.65563 34.0849ZM8.55469 27.4767L12.6573 27.0813C12.8305 27.0646 12.9938 26.9933 13.1238 26.8777C13.2538 26.7621 13.3436 26.6081 13.3804 26.4381C13.8301 24.4151 14.6422 22.4902 15.7774 20.7564C15.872 20.6099 15.9174 20.437 15.907 20.263C15.8967 20.0889 15.8312 19.9227 15.72 19.7884L13.103 16.6289L16.6576 13.0743L19.8176 15.6914C19.9535 15.804 20.1221 15.8697 20.2983 15.8788C20.4745 15.888 20.649 15.84 20.7959 15.7421C22.5217 14.6001 24.4451 13.7894 26.4677 13.3515C26.6367 13.3179 26.7905 13.231 26.9063 13.1034C27.0221 12.9758 27.0938 12.8144 27.111 12.643L27.5059 8.55469H32.5525L32.9479 12.6427C32.9648 12.8149 33.0363 12.9773 33.152 13.1061C33.2677 13.2349 33.4216 13.3233 33.5911 13.3584C35.6139 13.8069 37.5388 14.6178 39.2728 15.7519C39.4195 15.8462 39.5924 15.8912 39.7665 15.8806C39.9406 15.8699 40.1067 15.8041 40.2408 15.6926L43.3971 13.0781L46.9001 16.6255L44.28 19.7896C44.1675 19.9255 44.1018 20.0941 44.0927 20.2703C44.0836 20.4465 44.1315 20.6209 44.2294 20.7677C45.3714 22.4936 46.1821 24.417 46.62 26.4396C46.6568 26.6096 46.7466 26.7635 46.8766 26.8791C47.0066 26.9947 47.1699 27.066 47.343 27.0827L51.4453 27.4767V32.5242L47.4001 32.9188C47.2271 32.9357 47.064 33.0071 46.9342 33.1226C46.8044 33.2382 46.7147 33.392 46.678 33.5619C46.2282 35.5849 45.4161 37.5098 44.2809 39.2436C44.1864 39.3901 44.141 39.563 44.1513 39.737C44.1616 39.9111 44.2272 40.0773 44.3384 40.2116L46.9554 43.3711L43.4009 46.9257L40.2408 44.3087C40.1049 44.1962 39.9363 44.1304 39.76 44.1213C39.5838 44.1121 39.4093 44.1601 39.2625 44.258C37.5367 45.4 35.6133 46.2107 33.5906 46.6486C33.4216 46.6822 33.2679 46.7692 33.1521 46.8967C33.0363 47.0243 32.9645 47.1857 32.9474 47.3571L32.5525 51.4453H27.5059L27.1105 47.3573C27.0936 47.1851 27.022 47.0227 26.9063 46.8939C26.7906 46.7652 26.6368 46.6767 26.4673 46.6416C24.4445 46.1931 22.5195 45.3822 20.7855 44.2481C20.6388 44.1538 20.4659 44.1088 20.2919 44.1194C20.1178 44.1301 19.9517 44.1959 19.8176 44.3074L16.6576 46.9253L13.103 43.3711L15.72 40.2113C15.8325 40.0753 15.8982 39.9068 15.9073 39.7306C15.9164 39.5543 15.8685 39.3799 15.7706 39.2331C14.6286 37.5072 13.8179 35.5838 13.38 33.5612C13.3432 33.3912 13.2534 33.2373 13.1234 33.1217C12.9934 33.0061 12.8301 32.9348 12.657 32.9181L8.55469 32.5233V27.4767Z" fill="#181818"/>
<path d="M30.0292 43.5469C32.7085 43.5468 35.3276 42.7523 37.5554 41.2638C39.7831 39.7752 41.5194 37.6594 42.5448 35.1841C43.5701 32.7087 43.8383 29.9849 43.3156 27.3571C42.7929 24.7292 41.5027 22.3154 39.6081 20.4209C37.7135 18.5263 35.2997 17.2361 32.6719 16.7134C30.044 16.1907 27.3202 16.459 24.8449 17.4843C22.3695 18.5097 20.2538 20.246 18.7652 22.4738C17.2767 24.7015 16.4822 27.3207 16.4822 30C16.4863 33.5916 17.9149 37.035 20.4545 39.5746C22.9942 42.1142 26.4375 43.5428 30.0292 43.5469ZM30.0292 18.0938C32.384 18.0938 34.6859 18.7921 36.6439 20.1004C38.6018 21.4087 40.1279 23.2682 41.029 25.4438C41.9302 27.6193 42.1659 30.0133 41.7065 32.3229C41.2471 34.6324 40.1131 36.7539 38.448 38.419C36.7829 40.0841 34.6614 41.2181 32.3518 41.6775C30.0422 42.1369 27.6483 41.9011 25.4727 40.9999C23.2971 40.0988 21.4376 38.5727 20.1294 36.6147C18.8211 34.6568 18.1228 32.3548 18.1228 30C18.1264 26.8434 19.382 23.8171 21.6141 21.585C23.8462 19.3529 26.8725 18.0974 30.0292 18.0938Z" fill="#FF832A"/>
<path d="M27.9181 33.8978C28.0713 34.0474 28.277 34.1311 28.4911 34.1311C28.7053 34.1311 28.9109 34.0474 29.0642 33.8978L35.8465 27.2761C35.9245 27.2011 35.9869 27.1113 36.0301 27.0121C36.0733 26.9128 36.0964 26.806 36.0981 26.6977C36.0998 26.5895 36.0801 26.482 36.0401 26.3814C36 26.2809 35.9405 26.1892 35.8649 26.1118C35.7893 26.0343 35.699 25.9726 35.5995 25.9301C35.4999 25.8877 35.3929 25.8654 35.2846 25.8645C35.1764 25.8636 35.069 25.8842 34.9688 25.925C34.8685 25.9658 34.7773 26.026 34.7004 26.1022L28.4911 32.1645L25.2996 29.0484C25.2225 28.9732 25.1314 28.9139 25.0314 28.8738C24.9314 28.8338 24.8244 28.8139 24.7167 28.8152C24.609 28.8165 24.5026 28.839 24.4036 28.8814C24.3045 28.9238 24.2148 28.9853 24.1396 29.0624C24.0643 29.1395 24.005 29.2306 23.965 29.3306C23.9249 29.4307 23.905 29.5376 23.9063 29.6453C23.9076 29.753 23.9301 29.8594 23.9725 29.9585C24.0149 30.0575 24.0764 30.1472 24.1535 30.2224L27.9181 33.8978Z" fill="#181818"/>
</svg>
